# xmcd
#
# Track frame offsets: 
#        150
#        22479
#        39171
#        73073
#        96642
#
# Disc length: 1608 seconds
#
# Revision: 0
# Processed by: cddbd v1.5.2PL0 Copyright (c) Steve Scherf et al.
# Submitted via: ExactAudioCopyFreeDBPlugin 1.0
#
DISCID=46064605
DTITLE=Lana Del Rey - Video Games (Remixes)
DYEAR=2012
DGENRE=Alternative
TTITLE0=Video Games (Club Clique For The Bad Girls Remix)
TTITLE1=Video Games (Jakwob And Etherwood Remix)
TTITLE2=Video Games (White Lies C-Mix)
TTITLE3=Video Games (Jamie Woon Remix)
TTITLE4=Video Games (We Don't Belong In Pacha Remix)
EXTD=
EXTT0=
EXTT1=
EXTT2=
EXTT3=
EXTT4=
PLAYORDER=
